<?xml version="1.0" encoding="utf-8"?>
<!-- Generator: Adobe Illustrator 21.0.2, SVG Export Plug-In . SVG Version: 6.00 Build 0)  -->
<svg version="1.1" id="Calque_1" xmlns="http://www.w3.org/2000/svg" xmlns:xlink="http://www.w3.org/1999/xlink" x="0px" y="0px"
	 viewBox="0 0 232 195" style="enable-background:new 0 0 232 195;" xml:space="preserve">
<style type="text/css">
	.st0{fill:#77EDC2;}
	.st1{opacity:0.5;fill:#09112A;}
	.st2{fill:#09112A;}
	.st3{fill:#FFFFFF;}
</style>
<g>
	<g>
		<path class="st0" d="M150.2,139.9v7.1c0,3.4-2.8,6.2-6.2,6.2s-6.2-2.8-6.2-6.2v-30c0-3.4,2.8-6.2,6.2-6.2s6.2,2.8,6.2,6.2v8.9
			V139.9z"/>
	</g>
	<g>
		<path class="st0" d="M166.6,137.8v5.2c0,2.5-2,4.5-4.5,4.5s-4.5-2-4.5-4.5V121c0-2.5,2-4.5,4.5-4.5s4.5,2,4.5,4.5v6.5V137.8z"/>
	</g>
	<rect x="93.3" y="110.8" class="st1" width="80.4" height="28.1"/>
	<path class="st2" d="M172.5,106.8H93.3v29.5h79.2c8,0,14.5-6.7,14.5-14.7C187,113.5,180.5,106.8,172.5,106.8z"/>
	<path class="st1" d="M119.2,120.7c0-16-13-28.8-28.9-28.8s-28.9,12.8-28.9,28.7c0,0.8,0,0.9,0.1,2.2h-0.1c0,20.1,17.9,41,28.9,41
		s28.9-20.9,28.9-41h-0.1C119.2,121.5,119.2,121.5,119.2,120.7z"/>
	<path class="st2" d="M125.3,113.3"/>
	<path class="st2" d="M56.5,122.8c0,20.1,17.9,41,28.9,41s28.9-20.9,28.9-41H56.5z"/>
	<circle class="st2" cx="85.5" cy="121" r="28.9"/>
	<circle class="st3" cx="85.5" cy="121" r="14.5"/>
</g>
<path class="st0" d="M41,36.1c0-2.6,2.1-4.6,4.6-4.6s4.6,2.1,4.6,4.6v20.3l11.6-11c1.3-1.3,2.4-2.1,4.1-2.1c2.5,0,4.1,2,4.1,4.1
	c0,1.6-0.9,2.8-2.1,4l-7.3,6.3l8.7,11.8c0.8,1.1,1.2,2,1.2,3c0,2.5-2,4.2-4.3,4.2c-1.8,0-2.9-0.6-4-2.1L54,63.4l-3.7,3.4v5.3
	c0,2.6-2.1,4.6-4.6,4.6S41,74.6,41,72.1V36.1z"/>
<path class="st0" d="M89.7,77.1c-9.8,0-17.1-6.9-17.1-16.9V60c0-9.3,6.6-17,16.2-17c10.9,0,15.7,9,15.7,15.7c0,2.7-1.9,4.5-4.3,4.5
	H81.8c0.9,4.2,3.8,6.4,8,6.4c2.6,0,4.7-0.8,6.6-2.2c0.7-0.5,1.3-0.7,2.3-0.7c2.1,0,3.6,1.6,3.6,3.7c0,1.2-0.5,2.1-1.2,2.7
	C98.1,75.5,94.4,77.1,89.7,77.1z M95.6,57.4c-0.5-4.1-3-7-6.9-7c-3.8,0-6.3,2.7-7.1,7H95.6z"/>
<path class="st2" d="M106.9,66.9v-0.1c0-7.1,5.4-10.4,13.2-10.4c3.3,0,5.7,0.5,8,1.3v-0.5c0-3.8-2.4-6-7-6c-2.6,0-4.6,0.4-6.4,0.9
	c-0.5,0.2-0.9,0.2-1.3,0.2c-2.1,0-3.8-1.6-3.8-3.8c0-1.6,1-3.1,2.5-3.6c2.9-1.1,6.1-1.7,10.4-1.7c5.1,0,8.7,1.3,11,3.7
	c2.4,2.4,3.5,6,3.5,10.4v14.9c0,2.5-2,4.5-4.5,4.5c-2.7,0-4.5-1.9-4.5-3.8v-0.1c-2.3,2.5-5.4,4.1-9.9,4.1
	C112,76.9,106.9,73.4,106.9,66.9z M128.2,64.8v-1.6c-1.6-0.7-3.7-1.2-5.9-1.2c-4,0-6.4,1.6-6.4,4.5v0.1c0,2.5,2.1,4,5.1,4
	C125.3,70.5,128.2,68.2,128.2,64.8z"/>
<path class="st2" d="M142.5,73.2c-1-0.6-1.8-1.7-1.8-3.2c0-2.1,1.6-3.7,3.7-3.7c0.7,0,1.3,0.2,1.8,0.5c3.1,2,6.2,2.9,8.8,2.9
	c2.7,0,3.9-1,3.9-2.4v-0.1c0-2-3.2-2.7-6.8-3.8c-4.6-1.3-9.8-3.5-9.8-9.8v-0.1c0-6.6,5.4-10.4,12-10.4c3.4,0,7,0.9,10.1,2.5
	c1.3,0.7,2.2,1.9,2.2,3.5c0,2.1-1.6,3.7-3.7,3.7c-0.7,0-1.1-0.1-1.7-0.4c-2.6-1.3-5.1-2.1-7.1-2.1c-2.3,0-3.4,1-3.4,2.3v0.1
	c0,1.8,3.1,2.7,6.6,3.9c4.6,1.5,9.9,3.7,9.9,9.7v0.1c0,7.3-5.4,10.6-12.5,10.6C150.8,76.9,146.4,75.8,142.5,73.2z"/>
<path class="st0" d="M173.5,85.4c-1.3-0.5-2.9-1.6-2.9-3.8c0-2.3,1.8-3.8,3.7-3.8c0.7,0,1.2,0.1,1.5,0.2c0.8,0.2,1.3,0.4,2,0.4
	c1.6,0,2.4-0.3,3.3-2l0.3-0.7l-11.2-25.9c-0.2-0.6-0.5-1.5-0.5-2.1c0-2.6,2-4.5,4.6-4.5c2.3,0,3.7,1.3,4.5,3.5l7.1,19l6.8-19
	c0.7-2,2.1-3.5,4.5-3.5s4.4,1.8,4.4,4.3c0,0.7-0.2,1.8-0.4,2.2l-11.4,27.4c-2.7,6.6-5.5,9.2-11,9.2C176.5,86.3,175,86,173.5,85.4z"
	/>
</svg>
